<?xml version="1.0" standalone="no"?>
<!DOCTYPE svg PUBLIC "-//W3C//DTD SVG 20010904//EN"
 "http://www.w3.org/TR/2001/REC-SVG-20010904/DTD/svg10.dtd">
<svg version="1.0" xmlns="http://www.w3.org/2000/svg"
 width="1024.000000pt" height="1024.000000pt" viewBox="0 0 1024.000000 1024.000000"
 preserveAspectRatio="xMidYMid meet">

<g transform="translate(0.000000,1024.000000) scale(0.100000,-0.100000)"
fill="#000000" stroke="none">
<path d="M5027 8742 c-116 -71 -207 -145 -315 -257 -221 -230 -374 -516 -443
-827 -26 -119 -37 -413 -20 -542 37 -277 153 -555 331 -796 76 -101 221 -253
313 -327 l67 -54 0 -654 c0 -381 -4 -655 -9 -655 -5 0 -17 35 -26 78 -45 208
-138 513 -212 696 -321 801 -958 1324 -1753 1440 -139 21 -371 31 -493 21 -85
-6 -99 -10 -109 -28 -17 -32 -23 -316 -9 -450 29 -275 122 -562 267 -828 338
-620 951 -1044 1712 -1184 149 -28 406 -55 517 -55 43 0 77 -5 86 -12 12 -11
14 -113 11 -705 -1 -381 -6 -693 -10 -693 -4 0 -18 28 -31 63 -72 187 -166
333 -305 473 -220 220 -477 341 -797 375 -104 11 -253 5 -279 -11 -12 -7 -10
-25 7 -112 168 -843 1252 -1322 2243 -991 115 38 325 146 427 219 112 80 271
241 342 347 102 152 179 353 184 481 l2 61 -75 8 c-160 17 -410 -22 -585 -92
-316 -127 -588 -402 -715 -726 -17 -44 -36 -84 -41 -90 -5 -5 -9 262 -9 693
l0 701 33 5 c17 3 88 7 157 10 512 22 995 172 1395 434 557 364 925 956 1005
1612 13 112 11 383 -3 440 l-12 45 -75 8 c-98 11 -388 1 -518 -18 -814 -117
-1463 -669 -1780 -1515 -57 -151 -151 -469 -178 -602 -10 -49 -21 -88 -25 -88
-13 0 -19 241 -19 765 l0 540 61 45 c85 62 271 258 351 371 83 115 196 341
236 469 170 541 62 1093 -301 1545 -71 88 -192 207 -278 273 -65 49 -217 142
-233 142 -6 0 -46 -22 -89 -48z"/>
</g>
</svg>
